<?xml version="1.0" encoding="UTF-8"?>
<svg id="Layer_1" xmlns="http://www.w3.org/2000/svg" baseProfile="tiny" version="1.2" viewBox="0 0 2825 2518">
  <!-- Generator: Adobe Illustrator 29.5.1, SVG Export Plug-In . SVG Version: 2.1.0 Build 141)  -->
  <g>
    <g>
      <path d="M1387.12,905.27c.25,7.15-2.19,15.45-1.29,22.36.74,5.76,5.98,9.52,6.47,14.3.72,6.96-6.17,15.7-6.43,23.06-.27,7.94,6.69,11.88,6.9,19.09.18,6.26-3.95,11.58-3.78,17.86.14,5.03,4.55,13.48,5.5,20.32,2.66,19.38-.51,26.28,11.69,44.59,26.44,39.7,90.86,76.87,135.66,92.49,5.33,1.86,26.73,5.75,27.76,6.74,4.3,4.13-1.35,4.49-4.05,5.3-30.2,9.04-77.57,6.73-105.95-6.89-.71,2.96,2.13,9.4,3.65,11.82,8.81,14.06,8.94,9.22,19.86,14.81,1.09.56,15.11,13.3,18.48,16.16,3.7,3.15,6.75,4.9,6.39,10.58-171.9-24.21-357.28,5.25-526.01,38.65-48,9.5-118.24,33.4-164.19,34.49-11.74.28-25.47,2-17.75-11.64,3.35-5.91,46.17-28.13,55.6-33.16,80.94-43.11,168.52-78.35,252.17-115.88,3.32-10.23-6.72-3.89-17.05-4.86-58.68-5.56-129.11-13.13-186.32-25.51-37.31-8.07-103.31-28.92-31.24-57.43,108-42.73,257.49-45.75,369.78-80.04-2.28,12.33-13.48,21.04-16.84,33.26-8.3,30.14-6.15,73.77,19.23,95.62,17.41,14.99,35.75,11.28,55.8,15.68,15.85,3.48,38.58,11.53,52.9,13.46,12.04,1.62,27.69-3.47,40.72.04-2.49-10.05-16.31-8.73-21.56-14.65-3.8-4.29-4.25-16.63-9.93-18.87-6.74-2.66-12.53,3.5-18.59,3.87-12.88.78-11.48-10.55-19.86-17.2-4.28-3.39-11.05-4.18-13.56-6.79-5.57-5.79-2.03-24.21-17.66-24.36-7.82-9.2,29.8-5.77,32.13-8.79,4.61-5.96-7.03-21.86-7.97-28.69-3.26-23.76,9.87-35.95-27.59-34.32,4.08-12.25,6.77-15.59-3.79-24.09,32.96-12.44,69.5-26.6,100.74-41.39Z" fill="#72839d"/>
      <path d="M1480.6,852.82l.51,13.32,25.56-6.36c4.63,5.57-25.89,27.42-20.75,35.73.5.81,9.98,2.11,12.83,4.94,5.77,5.71,17.66,28.48,22.47,33.82,2.37,2.63,7.87,2.5,10.73,6.76,4.24,6.3,1.07,18.08,5.21,22.85,4.9,5.65,21.26,5.51,25.98,9.54,2.75,2.35,2.34,7.84,4.53,10.97,3,4.29,10.73,6.83,15.36,11.41,9.92,9.79,14.98,28.12,25.93,34.53,7.1,4.15,14.18,2.58,19.25,5.49,3.28,1.88,4.37,7.96,7.42,10.92,15.99,15.52,43.7,2.95,52.18,11.39,4.55,4.53.32,12.13,2.1,14.4.94,1.19,6.6.36,8.68,3.49,1.85,2.79.51,8.54,4.18,13.84,1.72,2.49,20.95,16.09,23.59,16.68,6.74-2.73,21.08-.35,25.69-1.33,4.23-.9,6.33-6.62,11.33-6.46,9.6.31,16.74,14.37,17.91,14.55,6.11.92,8.99-4.89,13.35-4.72,1.04.04,2.36,10.64,17,3.83l-10.42,17.84c6.91-1.58,15.1-13.15,20.08-14.19,6.03-1.25,10.04,2.19,15.19,2.71,4.45.45,18.08-4.86,6.03,7.4-8.93,9.08-31.88,19-44.48,14.71-3.4-1.15,1.99-10.48-4.84-8.42-9.36,2.82-21.75,23.75-28.91-4.48-4.93,6.67-27.22,17.58-32.54,8.68-2.06-3.44,2.09-13.14-4.41-11-5.41,1.78-10.49,8.48-19.79,8.77-10.03.32-15.14-8.79-22.46-8.87-7.33-.08-11.58,8.12-21.87,6.93-8.25-.95-9.08-7.54-15.37-9.18-9.86-2.57-22.91.14-33.65-2.77-9.37-2.54-13.78-11.25-20.27-14.56-5.31-2.71-11.55-2.39-16.86-5.1-13.37-6.84-37.7-40.51-45.66-44.58-5.07-2.6-11.44-.93-15.63-3.68-4.35-2.86-7.25-16.69-10.73-20.48-3.07-3.34-8.23-3.04-11.15-7.63-3.44-5.42-3.44-14.79-9.45-21.6-17.24-19.53-11.8-5.76-23.89-33.83-13.82-32.08-24.3-19.65-34.21-32.21-8.35-10.58-5.59-33.26-9.13-45.59,20.07-10.51,43.31-26.24,63.42-38.43ZM1779.61,1115.68c-3.59-2.13-7.15,1.23-5.42,2.26,3.59,2.13,7.15-1.23,5.42-2.26Z" fill="#72839d"/>
      <path d="M1787.41,1370.75c.68.56,5.36-.39,8.96,3.23,1.54,1.54,23.78,34.01,24.48,36.07,1.47,4.3-2.89,8.88-2.06,10.24,2.98,4.93,44.84,18.6,53.01,19.52,29.43,3.29,56.43-12.94,89.94-7.15,12.91,2.23,25.2,9.97,21.74,24.69-9.6-2.71-18.13-8.31-28.72-7.1-.33,1.7.02,3.61-.32,5.28-5.28-.3-10.57-.72-15.85-1-2.57-.14-5.45-.67-7.92-.5-9.5.64-15.17,4.57-23.62,5.73-3.61.49-40.44-.45-40.55,2.19-.26,6.02,14.98,11.84,19.55,12.37,11.21,1.31,25.32-12.73,38.52-7.42.69,9.83-5.52,14.98,4.27,16.19,2.61.32,5.3.22,7.92.5,5.45.58,15.14,3.88,21.3-1.31,1.76.11,3.52.25,5.28.33,4.68.23,16.06-1.19,13.71-7.09,1.6-.25,3.72.61,5.28.33,5.33-.94,12.72-3.86,16.18-4.28,21.25-2.61,47.6,3,45.87,29.4-7.44-1.37-10.92-6.61-19.51-6.8-5.04-.11-3.82,5.39-9.34,6.51-8.34,1.7-16.58-.88-24.89.17-12.58,1.6-25.59,9.27-41.32,9.71-15.64.44-27.98-4.29-43.13-5.01,6.08,9.7,10.38,6.6,9.47,17.51-11.63.1-14.34-.42-21.35-3.84-9.42-4.59-26.28,2.2-40.57-3.64-13.52-5.53-21.43-15.2-32.52-21.23-2.93-1.59-24.68-10.84-26.96-11.33-12.46-2.68-41.89,25.69-68.11,15.28-5.51-2.19-8.29-9.43-13.87-10.39-6.9-1.18-10.96,5.04-17.4,4.28,8.92-34.87,44.97-15.51,71.91-24.53,6.2-2.08,24.99-12.83,18.42-20.15-.63-.7-15.68-3.44-18.34-3.82.55-11.11-9.31-15.59-14.52-22.13-4.05-5.09-7.78-10.7-12.02-15.72-.21-1.97,4.03-7.4,5.59-8.56.77-.57,4.3-.5,6.69-2.21,11.53-8.21,23.68-15.53,34.76-24.35Z" fill="#d4d8d7"/>
      <path d="M1286.39,946.66c10.56,8.5,7.88,11.84,3.79,24.09,37.47-1.63,24.33,10.56,27.59,34.32.94,6.83,12.58,22.73,7.97,28.69-2.33,3.02-39.96-.41-32.13,8.79,15.63.16,12.1,18.57,17.66,24.36,2.5,2.61,9.28,3.39,13.56,6.79,8.38,6.65,6.98,17.98,19.86,17.2,6.06-.37,11.85-6.53,18.59-3.87,5.68,2.24,6.13,14.58,9.93,18.87,5.25,5.93,19.06,4.6,21.56,14.65-13.04-3.51-28.68,1.58-40.72-.04-14.33-1.93-37.06-9.99-52.9-13.46-20.05-4.4-38.39-.7-55.8-15.68-25.38-21.85-27.53-65.48-19.23-95.62,3.36-12.21,14.56-20.93,16.84-33.26,12.75-3.89,29.3-10.49,43.43-15.83Z" fill="#22807e"/>
      <path d="M2245.4,163.76c-8.57,4.56-17.96,12.45-28.34,11.32-6.69-.73-47.88-22.14-42.15-28.99,1.22-1.46,30.81-4.34,32.86-16.52.82.88,15.29,4.28,20.61,8.03,10.37,7.33,13.27,22.28,17.02,26.16Z" fill="#f1f1f1"/>
      <path d="M1766.9,1443.71c-32.27-4.64-32.5,10.53-50.05,12.68-8.31,1.02-11.38-3.12-14.18-3.47,2.88-4.12,5.92-12.37,1-15.85.26-.11-.49-4.31,2.23-5.1,14.92-4.29,32.08-3.55,46.48-10.4,5.21,6.54,15.06,11.02,14.52,22.13Z" fill="#d4d8d7"/>
      <path d="M1703.67,1437.07c4.92,3.48,1.88,11.73-1,15.85-10.62-1.35-37.59,16.37-23.18-5.07,10.19-15.17,17.29-7.83,24.18-10.77Z" fill="#d4d8d7"/>
      <path d="M2093.97,72.64c8.49-.85,15.18-.68,22.67,3.78,3.16,1.88,23.56,26.65,23.83,29.03,1.48,13.08-7.28,9.18-12.79,13.91-11.27,9.66-13.54,19.31-33.27,19.09-54.5-.62-45.35-61.32-.44-65.8ZM2090.81,80.27c-30.83,4.78-29.32,59.98,13.67,49.54,29.53-7.17,17.28-54.33-13.67-49.54Z" fill="#f1f1f1"/>
      <path d="M2156.34,608.99c14.92,140.76,49.37,244.08-46.46,367.62-88,113.46-288.02,166.22-322.24,310.89-2.99,12.65-8.25,76.7-.23,83.24-11.08,8.82-23.24,16.13-34.76,24.35-2.39,1.71-5.92,1.64-6.69,2.21-48.48-46.69-80.17-116.06-139.9-149.87-31.07-17.59-63.05-24.63-98.08-29.56.36-5.68-2.69-7.43-6.39-10.58-3.36-2.86-17.38-15.6-18.48-16.16-10.92-5.6-11.05-.75-19.86-14.81-1.52-2.42-4.36-8.86-3.65-11.82,28.38,13.61,75.75,15.93,105.95,6.89,2.7-.81,8.35-1.17,4.05-5.3-1.03-.99-22.43-4.88-27.76-6.74-44.8-15.62-109.21-52.8-135.66-92.49-12.2-18.31-9.02-25.21-11.69-44.59-.94-6.84-5.36-15.29-5.5-20.32-.17-6.28,3.96-11.6,3.78-17.86-.21-7.21-7.17-11.15-6.9-19.09.25-7.37,7.14-16.1,6.43-23.06-.49-4.78-5.73-8.54-6.47-14.3-.89-6.91,1.54-15.2,1.29-22.36,9.07-4.29,22.05-9.83,30.06-14.02,3.53,12.33.78,35.02,9.13,45.59,9.91,12.56,20.39.13,34.21,32.21,12.09,28.07,6.66,14.29,23.89,33.83,6.01,6.82,6.01,16.18,9.45,21.6,2.92,4.6,8.08,4.29,11.15,7.63,3.48,3.79,6.38,17.62,10.73,20.48,4.19,2.76,10.56,1.09,15.63,3.68,7.96,4.07,32.28,37.74,45.66,44.58,5.31,2.72,11.54,2.39,16.86,5.1,6.49,3.31,10.91,12.03,20.27,14.56,10.74,2.91,23.8.2,33.65,2.77,6.29,1.64,7.12,8.23,15.37,9.18,10.29,1.19,14.54-7.01,21.87-6.93,7.32.08,12.43,9.19,22.46,8.87,9.3-.3,14.38-6.99,19.79-8.77,6.5-2.14,2.35,7.56,4.41,11,5.32,8.89,27.61-2.02,32.54-8.68,7.16,28.23,19.55,7.3,28.91,4.48,6.83-2.06,1.45,7.26,4.84,8.42,12.6,4.28,35.56-5.63,44.48-14.71,12.05-12.26-1.58-6.96-6.03-7.4-5.14-.52-9.15-3.96-15.19-2.71-4.97,1.03-13.16,12.61-20.08,14.19l10.42-17.84c-14.64,6.81-15.96-3.79-17-3.83-4.36-.18-7.24,5.64-13.35,4.72-1.17-.18-8.31-14.24-17.91-14.55-5.01-.16-7.1,5.56-11.33,6.46-4.61.98-18.95-1.4-25.69,1.33-2.64-.6-21.86-14.19-23.59-16.68-3.67-5.3-2.33-11.05-4.18-13.84-2.08-3.12-7.74-2.3-8.68-3.49-1.78-2.26,2.45-9.87-2.1-14.4-8.48-8.44-36.19,4.13-52.18-11.39-3.05-2.96-4.14-9.04-7.42-10.92-5.07-2.91-12.15-1.33-19.25-5.49-10.95-6.41-16.01-24.73-25.93-34.53-4.64-4.58-12.36-7.11-15.36-11.41-2.19-3.13-1.78-8.62-4.53-10.97-4.71-4.03-21.08-3.89-25.98-9.54-4.14-4.77-.97-16.55-5.21-22.85-2.87-4.25-8.36-4.13-10.73-6.76-4.82-5.34-16.71-28.11-22.47-33.82-2.86-2.83-12.33-4.13-12.83-4.94-5.14-8.31,25.39-30.16,20.75-35.73l-25.56,6.36-.51-13.32c123.38-74.81,253.62-192.79,319.98-321.94,10.71,14.99,19.31,28.22,40.33,21.68,7.35-2.29,19.41-15.11,24.15-14.93,6.05.23,22.97,17.1,38.81,18.42,11.48.96,19.86-6.5,27.05-6.39,6.35.1,8.98,6.71,17.61,6.49,6.66-.16,13.28-6.98,19.28-6.59,8.95.57,18.4,17.1,35.52,14.84,5.16-.68,12.4-7.11,16.58-6.02,2.99.78,6.81,7.9,10.71,10.49,16.24,10.76,26.28,5.88,41.18,8.38,6.05,1.02,28.36,8.38,36.19,10.74,15.45,4.67,25.91,26.76,48.34,21.01Z" fill="#d4d8d7"/>
      <path d="M1779.61,1115.68c1.73,1.03-1.83,4.39-5.42,2.26-1.73-1.03,1.83-4.39,5.42-2.26Z" fill="#f1f1f1"/>
      <path d="M2090.81,80.27c30.94-4.79,43.2,42.36,13.67,49.54-42.99,10.44-44.5-44.76-13.67-49.54ZM2107.02,122.81c11.85-6.46-4.15-39.03-21.29-24.17-12.5,10.84,7.72,31.56,21.29,24.17Z" fill="#22807e"/>
      <path d="M2107.02,122.81c-13.57,7.4-33.78-13.32-21.29-24.17,17.13-14.86,33.13,17.71,21.29,24.17ZM2089.71,113.89c2.15,3.52,17.73,6.55,15.55-4.95-2.66-14.08-21.9-5.45-15.55,4.95Z" fill="#f1f1f1"/>
      <path d="M2089.71,113.89c-6.35-10.4,12.89-19.04,15.55-4.95,2.18,11.51-13.41,8.48-15.55,4.95Z" fill="#22807e"/>
    </g>
    <path d="M1818.8,1420.29s-33.96,25.98-51.9,23.42c0,0,1.08-11.04-14.52-22.13l-12.02-15.72s2.09-5.1,5.59-8.56c0,0,4.04-.51,6.69-2.21,2.65-1.7,34.76-24.35,34.76-24.35,0,0,5.83.12,8.96,3.23,3.13,3.11,24.72,37.08,24.72,37.08,0,0,1.15.8-2.3,9.24Z" fill="#d39518"/>
    <g>
      <path d="M2116.64,76.42c-7.5-4.46-14.18-4.63-22.67-3.78-44.91,4.49-54.06,65.19.44,65.8,19.73.22,22-9.43,33.27-19.09,5.52-4.73,14.28-.83,12.79-13.91-.27-2.39-20.67-27.15-23.83-29.03Z" fill="none"/>
      <path d="M2126.54,470.21c-17.99-12.12-24.55-12.81-24.55-12.81,0,0-15.03-6.72-30.93-3.77-15.9,2.95-30.96-17.71-30.96-17.71,0,0-12.97,10.79-24.07,5.84-11.1-4.95-22.16-23.08-47.31-8.06,0,0-10.73-13.03-28.46-3.41-17.73,9.63-55.02-15.12-55.02-15.12,0,0-17.68,54.33-38.75,5.83,0,0,1.11-4.08,2.9-10.67-14.25,42.3-31.96,87.73-48.82,120.54,10.71,14.99,19.31,28.22,40.33,21.68,7.35-2.29,19.41-15.11,24.15-14.93,6.05.23,22.97,17.1,38.81,18.42,11.48.96,19.86-6.5,27.05-6.39,6.35.1,8.98,6.71,17.61,6.49,6.66-.16,13.28-6.98,19.28-6.59,8.95.57,18.4,17.1,35.51,14.84,5.16-.68,12.4-7.11,16.58-6.02,2.99.78,6.81,7.9,10.71,10.49,16.24,10.76,26.28,5.88,41.18,8.38,6.05,1.02,28.36,8.38,36.19,10.74,15.45,4.67,25.91,26.76,48.34,21.01-4.52-42.61-9.8-85.95-14.49-129.23-.32.07-2.73-1.08-15.31-9.55Z" fill="#22807e"/>
      <path d="M2141.83,479.58c-.13-1.23-.27-2.47-.4-3.7l.31,3.59s.05.05.1.11Z" fill="#22807e"/>
      <path d="M2284.75,205.17c-2.57-5.47-18.49-28.33-22.63-32.44-4.76-4.74-15.44-7.65-16.72-8.97-8.57,4.56-17.96,12.45-28.34,11.32-6.69-.73-47.88-22.14-42.15-28.99,1.22-1.46,30.81-4.34,32.86-16.52-12.03-12.98-24.23-31.92-38.34-44.79-58.12-53.03-149.54-34.9-202.57,16.31-46.1,44.51-64.71,105.73-79.4,167.33l-.62-.13s-.37,2.87-1.11,7.46c-1.47,9.09-4.42,24.94-8.95,38.79-.14.42-.27.83-.41,1.25-5.53,16.43-20.61,71.23-26.98,94.56-1.8,6.59-2.9,10.67-2.9,10.67,21.06,48.5,38.75-5.83,38.75-5.83,0,0,37.28,24.74,55.02,15.12s28.46,3.41,28.46,3.41c25.16-15.02,36.21,3.11,47.31,8.06,11.1,4.95,24.07-5.84,24.07-5.84,0,0,15.06,20.66,30.96,17.71,15.9-2.95,30.93,3.77,30.93,3.77,0,0,6.56.69,24.55,12.81,12.57,8.47,14.99,9.62,15.31,9.55.07-.02.03-.1-.02-.18-.04-.06-.1-.11-.1-.11l-.31-3.59-11.24-131.3-2.32-27.07c-4.04-58.11-2.9-106.05,70.99-108.92,40.85-1.59,34.8,8.66,62.18,19.98,8.48,3.51,18.66,4.48,27.58,6.86,2.05-12.21,1.27-19.33-3.86-30.25ZM2127.68,119.35c-11.27,9.66-13.54,19.31-33.27,19.09-54.5-.62-45.35-61.32-.44-65.8,8.49-.85,15.18-.68,22.67,3.78,3.16,1.88,23.56,26.65,23.83,29.03,1.48,13.08-7.27,9.18-12.79,13.91Z" fill="#72839d"/>
    </g>
  </g>
  <g>
    <path d="M294.36,2290.55c-13.26-2.65-25.73-7.68-37.39-15.11-11.67-7.42-19.63-18.02-23.87-31.82h-4.77l-53.3,71.6c-13.26-2.65-26.39-8.22-39.38-16.71-13-8.48-21.62-19.89-25.85-34.21h-4.77l-28.64,37.39c-3.72,4.77-7.96,10.88-12.73,18.3-4.77,7.43-7.16,15.65-7.16,24.66,0,11.14,4.77,22.15,14.32,33.01,9.55,10.88,22.54,18.97,38.98,24.26,5.83,1.59,10.6,2.39,14.32,2.39,6.36,0,11.93-3.18,16.71-9.55l36.59-52.5c4.77,6.9,11.93,13.92,21.48,21.08,9.55,7.16,20.68,13.13,33.41,17.9,5.83,1.59,10.6,2.39,14.32,2.39,6.36,0,11.93-3.18,16.71-9.55l38.98-55.69c3.7-5.29,5.57-10.07,5.57-14.32,0-6.89-4.51-11.4-13.52-13.52Z" fill="#22807e"/>
    <path d="M580.41,1439.37c3.7,3.97,5.57,8.36,5.57,13.12,0,4.26-.66,8.9-1.99,13.93-1.33,5.05-3.31,10.73-5.95,17.1l-30.24,81.15h-7.96c-9.02-9.55-15.39-14.33-19.09-14.33-15.39,0-30.76,4.65-46.13,13.93-15.39,9.28-29.57,21.61-42.57,37-13,15.39-23.46,32.21-31.42,50.51-7.95,18.3-11.94,36.19-11.94,53.7,0,13.27,3.06,24.79,9.15,34.61,6.09,9.81,16.83,14.72,32.21,14.72,5.84,0,12.85-.81,21.09-2.39,8.22-1.6,16.57-3.99,25.06-7.16,15.91,0,30.24,10.88,42.96,32.61,12.73,21.75,19.09,50.66,19.09,86.7,0,38.2-6.76,76.78-20.29,115.75-13.52,38.99-31.95,75.45-55.28,109.39-25.99,38.18-56.75,69.73-92.29,94.67-35.52,24.93-74.24,37.39-116.15,37.39s-78.34-9.69-104.61-29.03c-26.25-19.36-45.21-45.88-56.88-79.55-11.67-33.69-17.49-71.47-17.49-113.36,0-35.02,3.29-72.39,9.94-112.17,6.62-39.78,15.91-80.35,27.85-121.72,11.92-41.36,25.31-81.67,40.16-120.91l25.46,7.95c-19.61,54.09-35.52,105.68-47.73,154.73-12.21,49.07-18.03,95.08-17.49,138.02.52,29.7,7.16,56.36,19.88,79.96,12.73,23.59,30.76,42.03,54.09,55.28,23.33,13.25,51.43,19.9,84.33,19.9,30.76,0,58.6-5.05,83.54-15.12,24.92-10.08,46.79-23.08,65.63-38.97,18.81-15.93,34.72-32.63,47.73-50.13,12.98-17.49,22.8-33.67,29.43-48.52,6.63-14.83,9.94-26.25,9.94-34.21,0-11.13-2.12-20.41-6.36-27.85-4.24-7.41-8.75-12.19-13.52-14.31-7.44,2.12-15.66,3.72-24.66,4.76-9.02,1.08-16.45,1.6-22.27,1.6-31.3,0-54.49-10.75-69.61-32.21-15.12-21.48-22.67-49.45-22.67-83.93,0-24.39,3.83-51.18,11.52-80.35,7.69-29.16,18.3-58.33,31.82-87.51,13.53-29.16,29.3-55.94,47.33-80.34,18.03-24.39,37.39-43.88,58.08-58.48,20.69-14.58,41.89-21.88,63.64-21.88,9.01,0,15.39,1.99,19.09,5.97Z" fill="#72839d"/>
    <path d="M886.97,2041.4c-13.26-2.65-25.73-7.68-37.39-15.11-11.67-7.42-19.63-18.02-23.87-31.82h-4.77l-53.3,71.6c-13.26-2.65-26.39-8.22-39.38-16.71-13-8.48-21.62-19.89-25.86-34.21h-4.77l-28.64,37.39c-3.72,4.77-7.95,10.88-12.73,18.3-4.77,7.43-7.16,15.65-7.16,24.66,0,11.14,4.77,22.15,14.32,33.01,9.55,10.88,22.54,18.97,38.98,24.26,5.83,1.59,10.6,2.39,14.32,2.39,6.36,0,11.93-3.18,16.71-9.55l36.6-52.5c4.77,6.9,11.93,13.92,21.48,21.08,9.55,7.16,20.68,13.13,33.41,17.9,5.83,1.59,10.6,2.39,14.32,2.39,6.36,0,11.93-3.18,16.71-9.55l38.98-55.69c3.7-5.29,5.57-10.07,5.57-14.32,0-6.89-4.51-11.4-13.52-13.52Z" fill="#22807e"/>
    <path d="M843.63,1562.82c2.65.53,5.17.93,7.56,1.19,2.39.27,4.64.4,6.76.4,3.7,0,6.76-.66,9.15-1.99,2.39-1.32,4.9-3.84,7.56-7.56l39.78-58.07c4.24-5.83,6.36-10.6,6.36-14.32,0-6.36-4.77-10.34-14.32-11.93-17.5-3.7-31.82-9.81-42.96-18.3-11.14-8.48-20.68-19.61-28.64-33.41h-3.98l-29.43,38.19c-3.72,4.77-8.09,11.01-13.13,18.69-5.05,7.69-7.56,16.31-7.56,25.85,0,11.14,5.17,22.67,15.51,34.61,10.34,11.93,26.12,20.82,47.33,26.65Z" fill="#22807e"/>
    <path d="M1101.72,1739.45l32.62-54.1-10.34-9.55c-25.99,15.91-50.12,28.38-72.39,37.39-22.28,9.02-45.08,13.52-68.41,13.52-19.63,0-37.39-4.64-53.3-13.92-15.91-9.27-23.87-21.6-23.87-36.99,0-18.56,7.42-33.41,22.28-44.55,14.84-11.14,32.62-16.71,53.3-16.71,14.84,0,28.64,2.66,41.37,7.96,6.89-6.36,9.81-14.84,8.75-25.46-1.07-10.6-5.84-20.15-14.32-28.64-8.49-8.48-21.22-12.73-38.18-12.73-19.09,0-35.8,6.36-50.12,19.09-14.32,12.73-28.12,35.54-41.37,68.41-4.77,9.55-10.61,20.56-17.5,33.01-6.9,12.47-12.87,24.8-17.9,36.99-5.05,12.21-7.56,22.28-7.56,30.23,0,16.98,6.63,31.82,19.89,44.55,13.25,12.73,34.73,22.01,64.44,27.84-11.67,9.03-21.35,16.45-29.04,22.28-7.69,5.83-14.46,10.34-20.29,13.52-4.25-1.59-9.82-3.32-16.71-5.17-6.9-1.86-13.26-3.32-19.09-4.37-4.25,0-11.81-1.99-22.67-5.97-10.88-3.98-23.47-5.97-37.79-5.97s-29.04,2.78-45.74,8.35c-16.71,5.57-35.28,17.5-55.69,35.8-20.42,18.3-43.09,46.8-68.02,85.52-.99,1.52-2,3.08-3.02,4.68-15.35,21.79-30.65,45.55-45.9,71.29-24.66,41.64-54.23,84.46-88.7,128.48-20.16,25.46-42.96,49.19-68.41,71.2-25.46,22-51.44,39.9-77.96,53.7l2.39,12.73c20.16-1.59,39.65-7.04,58.47-16.31,18.82-9.28,35.53-19.63,50.12-31.03,14.58-11.41,25.58-20.82,33.01-28.24,28.64-28.64,52.11-56.88,70.4-84.72s35-54.22,50.12-79.15c1.34-2.21,2.7-4.37,4.06-6.53,6.97-9.25,13.71-18.74,20.2-28.47,2.13-3.25,4.27-6.36,6.41-9.41,6.16-7.82,12.5-15.3,19.04-22.42,7.42-7.96,16.83-17.1,28.24-27.44.12-.11.25-.22.37-.33,4.89-3.42,9.8-6.38,14.74-8.82,23.59-11.67,46-17.5,67.22-17.5,12.73,0,23.86,1.32,33.41,3.98,7.95,2.21,13.47,3.48,16.64,3.85.02.04.04.09.06.13.36,0,.73-.02,1.1-.03.16,0,.35.03.49.03.02-.01.05-.03.07-.04,12.29-.41,25.78-5.29,40.5-14.68,15.38-9.82,34.21-25.85,56.48-48.13,10.6-10.61,23.07-21.88,37.39-33.81,14.32-11.93,27.57-22.4,39.78-31.42,14.32-10.07,32.34-22.54,54.1-37.39,21.74-14.84,44.02-29.7,66.82-44.55Z" fill="#72839d"/>
    <path d="M1320.54,1625.29c-5.57,16.71-9.94,32.49-13.13,47.33-3.18,14.85-5.44,30.76-6.76,47.73-1.33,16.98-1.73,37.39-1.19,61.26l1.59,115.35c.52,32.35-2.66,58.47-9.55,78.36-6.9,19.89-15.91,34.21-27.05,42.96-11.14,8.75-22.81,13.13-35,13.13h-3.18c-20.16,0-36.33-4.24-48.53-12.73-12.21-8.48-20.82-19.09-25.85-31.82-5.05-12.73-7.56-24.92-7.56-36.59,0-8.48,1.19-21.6,3.58-39.38,2.39-17.76,5.43-38.05,9.15-60.86l-22.27-4.77-24.66,93.87c-5.31,21.22-12.47,40.31-21.48,57.28-9.02,16.98-18.3,30.5-27.84,40.57-6.9,6.9-17.5,14.99-31.82,24.26-14.32,9.28-29.97,18.43-46.94,27.45l-71.6,37.39,6.36,20.68,107.4-15.91c9.55-1.59,16.83-4.1,21.88-7.56,5.03-3.44,11-9.67,17.9-18.69,9.01-12.19,18.02-28.1,27.05-47.73,10.07,27.05,24.13,47.47,42.16,61.26,18.02,13.8,36.59,20.68,55.69,20.68h3.18c21.21,0,42.29-8.23,63.24-24.66,20.95-16.45,39.64-43.23,56.08-80.35,8.48-18.56,16.97-43.08,25.46-73.59,8.48-30.49,12.99-63.51,13.52-99.04l7.16-292.75-16.71-2.39c-7.96,22.81-14.72,42.56-20.29,59.27Z" fill="#72839d"/>
    <path d="M1442.37,1301.34c-5.57,13.26-9.68,25.46-12.33,36.59-2.66,11.14-4.51,22.95-5.57,35.4-1.07,12.47-1.59,27.72-1.59,45.74v655.29h15.11c10.6-28.1,19.09-58.2,25.46-90.29,6.36-32.08,9.81-66.69,10.34-103.82l3.98-623.47-12.73-3.98c-9.55,19.09-17.1,35.28-22.67,48.53Z" fill="#72839d"/>
    <path d="M1839.15,1869.73c5.83,1.59,10.6,2.39,14.32,2.39,6.36,0,11.93-3.18,16.71-9.55l36.6-52.5c4.77,6.9,11.93,13.92,21.48,21.08,9.55,7.16,20.68,13.13,33.41,17.9,5.83,1.59,10.6,2.39,14.32,2.39,6.36,0,11.93-3.18,16.71-9.55l38.98-55.69c3.7-5.29,5.57-10.07,5.57-14.32,0-6.89-4.51-11.4-13.52-13.52-13.26-2.65-25.73-7.68-37.39-15.11-11.67-7.42-19.63-18.02-23.87-31.82h-4.77l-53.3,71.6c-13.26-2.65-26.39-8.22-39.38-16.71-13-8.48-21.62-19.89-25.86-34.21h-4.77l-28.64,37.39c-3.72,4.77-7.95,10.88-12.73,18.3-4.77,7.43-7.16,15.65-7.16,24.66,0,11.14,4.77,22.15,14.32,33.01,9.55,10.88,22.54,18.97,38.98,24.26Z" fill="#22807e"/>
    <path d="M2300.4,1562.82c2.65.53,5.17.93,7.56,1.19,2.39.27,4.64.4,6.76.4,3.7,0,6.76-.66,9.15-1.99,2.39-1.32,4.9-3.84,7.56-7.56l39.78-58.07c4.24-5.83,6.36-10.6,6.36-14.32,0-6.36-4.77-10.34-14.32-11.93-17.5-3.7-31.82-9.81-42.96-18.3-11.14-8.48-20.68-19.61-28.64-33.41h-3.98l-29.43,38.19c-3.72,4.77-8.09,11.01-13.13,18.69-5.05,7.69-7.56,16.31-7.56,25.85,0,11.14,5.17,22.67,15.51,34.61,10.34,11.93,26.12,20.82,47.33,26.65Z" fill="#22807e"/>
    <path d="M2439.39,1731.49c0-22.28-2.78-42.82-8.35-61.65-5.57-18.82-13.66-33.93-24.26-45.35-10.62-11.4-23.87-17.1-39.78-17.1-8.49,0-16.05,1.59-22.67,4.77-6.64,3.18-11.53,6.1-14.72,8.75l-42.96,121.72c0,21.75,5.57,37.53,16.71,47.33,11.14,9.82,24.66,14.72,40.57,14.72,6.89,0,14.32-1.06,22.28-3.18,7.96-2.11,15.11-5.29,21.48-9.55,7.96,7.43,11.93,15.65,11.93,24.66,0,12.73-7.83,26.53-23.47,41.37-15.65,14.85-35.14,27.05-58.47,36.59-14.85,6.36-30.9,11.54-48.13,15.51-12.47,2.88-24.87,4.84-37.19,5.92,3.7-13.29,7.22-27.84,10.54-43.7l-14.32-3.98c-5.84,14.32-11.41,25.73-16.71,34.21-5.31,8.49-13.52,17.5-24.66,27.05-7.43,6.9-23.34,16.18-47.73,27.84-24.4,11.67-57.02,22.27-97.85,31.82-35.54,8.49-75.85,15.39-120.92,20.68-45.08,5.31-97.33,7.96-156.72,7.96-45.08,0-81.28-4.37-108.59-13.13-27.32-8.75-46.54-21.08-57.68-36.99-7.43-11.14-12.33-22.8-14.72-35-2.39-12.19-2.26-29.43.4-51.71h-24.66c-2.66,21.22-5.84,43.49-9.55,66.82-3.72,23.34-5.57,43.23-5.57,59.66,0,28.12,5.43,50.79,16.31,68.02,10.86,17.24,25.58,30.5,44.15,39.78,18.56,9.28,39.9,15.51,64.04,18.69,24.13,3.18,49.72,4.77,76.77,4.77,23.86,0,52.23-1.19,85.12-3.58,32.88-2.39,67.48-6.62,103.82-12.73,36.32-6.09,71.46-14.18,105.41-24.26,42.42-12.73,77.56-28.64,105.41-47.73,27.84-19.09,49.19-42.68,64.04-70.8,3.9-7.8,7.58-16.21,11.05-25.2,8.14,6.72,16.39,12.34,24.74,16.85,13.25,7.16,25.18,10.74,35.8,10.74,22.27,0,43.08-8.09,62.45-24.26,19.35-16.18,36.32-37.13,50.91-62.85,14.58-25.72,25.85-53.03,33.81-81.94,7.96-28.9,11.93-56.08,11.93-81.54Z" fill="#72839d"/>
    <path d="M2732.92,1144.35c-7.95,22.81-14.72,42.56-20.29,59.27-5.57,16.71-9.94,32.49-13.12,47.33-3.18,14.85-5.44,30.77-6.76,47.73-1.33,16.98-1.73,37.39-1.19,61.25l1.59,401.79c.52,18.57-1.47,37.13-5.97,55.69-4.51,18.57-13.12,34.88-25.85,48.92-8.71,9.62-20.29,17.19-34.71,22.71-2.9-22.16-8.83-40.87-17.79-56.12-13.26-22.53-30.77-33.81-52.5-33.81-5.31,0-11.41,1.07-18.3,3.18-6.9,2.13-13.26,5.57-19.09,10.34l-42.96,121.72c0,24.4,6.23,40.84,18.69,49.32,12.45,8.49,25.32,12.73,38.58,12.73,15.91,0,28.1-2.78,36.6-8.35,8.48-5.57,13.79-9.41,15.91-11.54,2.11,0,4.64,1.86,7.56,5.57,2.91,3.72,4.37,8.49,4.37,14.32,0,4.25-2.13,9.55-6.36,15.91-4.25,6.36-9.82,12.47-16.71,18.3-19.63,15.91-47.21,34.21-82.73,54.89l-76.37,44.55,6.36,20.68,94.67-15.11c12.19-2.11,21.34-4.64,27.44-7.56,6.09-2.91,13.13-9.67,21.08-20.29,9.55-12.73,19.22-28.9,29.04-48.53,9.81-19.61,18.02-41.23,24.66-64.84,3.07-10.92,5.39-21.87,7.04-32.86,10.77-3.87,21.68-10.67,32.73-20.44,18.3-16.18,33.27-34.34,44.95-54.49,8.48-14.32,16.71-35.4,24.66-63.24,7.96-27.84,12.45-63.24,13.52-106.2l7.96-570.44-16.71-2.39Z" fill="#72839d"/>
  </g>
  <text transform="translate(552.79 2433.4) scale(.88 1)" fill="#22807e" font-family="Montserrat-Bold, Montserrat" font-size="242.87" font-weight="700"><tspan x="0" y="0">Al-Dughairi Loft</tspan></text>
</svg>